<svg width="26" height="26" viewBox="0 0 26 26" fill="none" xmlns="http://www.w3.org/2000/svg">
<path d="M1.66667 14.1784H10.1667C10.5424 14.1784 10.9027 14.0298 11.1684 13.7652C11.4341 13.5007 11.5833 13.1418 11.5833 12.7677V1.48134C11.5833 1.10718 11.4341 0.748341 11.1684 0.483767C10.9027 0.219193 10.5424 0.0705566 10.1667 0.0705566H1.66667C1.29094 0.0705566 0.930609 0.219193 0.664932 0.483767C0.399255 0.748341 0.25 1.10718 0.25 1.48134V12.7677C0.25 13.1418 0.399255 13.5007 0.664932 13.7652C0.930609 14.0298 1.29094 14.1784 1.66667 14.1784ZM0.25 24.054C0.25 24.4281 0.399255 24.787 0.664932 25.0515C0.930609 25.3161 1.29094 25.4647 1.66667 25.4647H10.1667C10.5424 25.4647 10.9027 25.3161 11.1684 25.0515C11.4341 24.787 11.5833 24.4281 11.5833 24.054V18.4108C11.5833 18.0366 11.4341 17.6778 11.1684 17.4132C10.9027 17.1487 10.5424 17 10.1667 17H1.66667C1.29094 17 0.930609 17.1487 0.664932 17.4132C0.399255 17.6778 0.25 18.0366 0.25 18.4108V24.054ZM14.4167 24.054C14.4167 24.4281 14.5659 24.787 14.8316 25.0515C15.0973 25.3161 15.4576 25.4647 15.8333 25.4647H24.3333C24.7091 25.4647 25.0694 25.3161 25.3351 25.0515C25.6007 24.787 25.75 24.4281 25.75 24.054V14.1784C25.75 13.8043 25.6007 13.4454 25.3351 13.1809C25.0694 12.9163 24.7091 12.7677 24.3333 12.7677H15.8333C15.4576 12.7677 15.0973 12.9163 14.8316 13.1809C14.5659 13.4454 14.4167 13.8043 14.4167 14.1784V24.054ZM15.8333 9.94607H24.3333C24.7091 9.94607 25.0694 9.79744 25.3351 9.53286C25.6007 9.26829 25.75 8.90945 25.75 8.53529V1.48134C25.75 1.10718 25.6007 0.748341 25.3351 0.483767C25.0694 0.219193 24.7091 0.0705566 24.3333 0.0705566H15.8333C15.4576 0.0705566 15.0973 0.219193 14.8316 0.483767C14.5659 0.748341 14.4167 1.10718 14.4167 1.48134V8.53529C14.4167 8.90945 14.5659 9.26829 14.8316 9.53286C15.0973 9.79744 15.4576 9.94607 15.8333 9.94607Z" fill="#E6E6E6"/>
</svg>
