<svg width="18" height="18" viewBox="0 0 18 18" fill="none" xmlns="http://www.w3.org/2000/svg">
<path d="M3.84921 14.7145L1.34921 13.3452C1.16588 13.2456 1.06188 13.1006 1.03721 12.91C1.01254 12.7195 1.06654 12.5575 1.19921 12.424L1.49921 12.1253C1.56588 12.0589 1.64521 12.0131 1.73721 11.9879C1.82921 11.9626 1.91654 11.9586 1.99921 11.9759L4.19921 12.2747L8.09921 8.39085L1.29921 4.7062C1.04921 4.57342 0.903544 4.36595 0.862211 4.08379C0.820877 3.80163 0.899877 3.56097 1.09921 3.3618L1.34921 3.11284C1.46588 2.99666 1.59521 2.92197 1.73721 2.88877C1.87921 2.85558 2.02488 2.85558 2.17421 2.88877L11.2492 5.20412L15.1742 1.3452C15.4575 1.06305 15.8119 0.921967 16.2372 0.921967C16.6625 0.921967 17.0165 1.06305 17.2992 1.3452C17.5825 1.62736 17.7242 1.98022 17.7242 2.40379C17.7242 2.82736 17.5825 3.17989 17.2992 3.46139L13.3992 7.3452L15.7242 16.3328C15.7575 16.4987 15.7532 16.6607 15.7112 16.8187C15.6692 16.9767 15.5902 17.1135 15.4742 17.229L15.3492 17.3535C15.1159 17.5859 14.8449 17.6772 14.5362 17.6274C14.2275 17.5776 13.9985 17.4116 13.8492 17.1294L10.1992 10.4821L6.29921 14.3659L6.59921 16.507C6.61588 16.6232 6.60754 16.7311 6.57421 16.8307C6.54088 16.9303 6.48254 17.0216 6.39921 17.1045L6.27421 17.229C6.10754 17.395 5.90754 17.4654 5.67421 17.4401C5.44088 17.4149 5.26588 17.2947 5.14921 17.0796L3.84921 14.7145Z" fill="#B30000"/>
</svg>
