<svg width="29" height="29" viewBox="0 0 29 29" fill="none" xmlns="http://www.w3.org/2000/svg">
<path d="M10.1024 0.88932C7.20481 1.89559 4.70596 3.80551 2.97287 6.33856C1.23977 8.8716 0.363774 11.8943 0.473546 14.9625C0.583317 18.0308 1.67307 20.983 3.58274 23.3854C5.49241 25.7879 8.12134 27.5139 11.0834 28.3101C13.4848 28.9304 16.0007 28.9577 18.4149 28.3895C20.602 27.8977 22.624 26.8458 24.2829 25.3367C26.0095 23.7181 27.2627 21.659 27.9079 19.3808C28.6089 16.9033 28.7337 14.2979 28.2727 11.7646H14.7877V17.3645H22.5973C22.4412 18.2576 22.1067 19.11 21.6139 19.8708C21.121 20.6315 20.48 21.2848 19.729 21.7917C18.7755 22.4235 17.7004 22.8484 16.573 23.0392C15.4423 23.2497 14.2826 23.2497 13.1519 23.0392C12.0058 22.8022 10.9217 22.3287 9.96868 21.6488C8.43746 20.5638 7.28772 19.0223 6.68353 17.2443C6.06929 15.433 6.06929 13.4694 6.68353 11.658C7.1136 10.3884 7.82457 9.23244 8.76337 8.27638C9.83771 7.16219 11.1979 6.36576 12.6946 5.97447C14.1913 5.58319 15.7668 5.61216 17.2481 6.05822C18.4054 6.41368 19.4637 7.03502 20.3384 7.87266C21.219 6.99568 22.0981 6.11643 22.9756 5.23492C23.4288 4.76089 23.9227 4.30955 24.369 3.82418C23.0335 2.5802 21.466 1.61216 19.7562 0.975506C16.6425 -0.156277 13.2357 -0.186693 10.1024 0.88932Z" fill="white"/>
<path d="M10.1021 0.889415C13.2352 -0.187329 16.642 -0.157714 19.7559 0.973333C21.466 1.61431 23.0328 2.58701 24.3665 3.83562C23.9134 4.32098 23.4353 4.7746 22.9731 5.24635C22.0941 6.12484 21.2158 7.00031 20.3382 7.87276C19.4634 7.03512 18.4052 6.41377 17.2479 6.05831C15.767 5.61069 14.1916 5.58004 12.6945 5.96973C11.1974 6.35942 9.83638 7.15438 8.76086 8.2674C7.82206 9.22347 7.11109 10.3795 6.68102 11.6491L1.98438 8.00884C3.66549 4.67154 6.57623 2.11876 10.1021 0.889415Z" fill="#E33629"/>
<path d="M0.738451 11.615C0.990704 10.3625 1.40981 9.14961 1.98454 8.00879L6.68118 11.6581C6.06695 13.4694 6.06695 15.433 6.68118 17.2443C5.11639 18.4539 3.55085 19.6696 1.98454 20.8913C0.546214 18.0252 0.107548 14.7597 0.738451 11.615Z" fill="#F8BD00"/>
<path d="M14.7876 11.7625H28.2726C28.7337 14.2957 28.6089 16.9011 27.9079 19.3786C27.2627 21.6568 26.0095 23.7159 24.2829 25.3345C22.7672 24.1506 21.2447 22.9757 19.729 21.7918C20.4804 21.2844 21.1218 20.6303 21.6147 19.8688C22.1075 19.1073 22.4417 18.254 22.5972 17.36H14.7876C14.7854 15.4957 14.7876 13.6291 14.7876 11.7625Z" fill="#587DBD"/>
<path d="M1.98242 20.8915C3.54872 19.6819 5.11427 18.4662 6.67906 17.2445C7.28445 19.0231 8.43584 20.5647 9.96875 21.649C10.9247 22.3258 12.0112 22.7954 13.1588 23.028C14.2894 23.2385 15.4492 23.2385 16.5798 23.028C17.7073 22.8372 18.7823 22.4123 19.7359 21.7806C21.2516 22.9645 22.7741 24.1394 24.2898 25.3233C22.6311 26.8332 20.6091 27.8859 18.4218 28.3784C16.0076 28.9465 13.4916 28.9193 11.0902 28.299C9.19097 27.7913 7.41692 26.8964 5.8793 25.6703C4.25196 24.3767 2.92274 22.7466 1.98242 20.8915Z" fill="#319F43"/>
</svg>
