<svg width="20" height="21" viewBox="0 0 20 21" fill="none" xmlns="http://www.w3.org/2000/svg">
<path opacity="0.16" d="M17 9.0832C17 11.1961 16.1571 13.2225 14.6569 14.7166C13.1566 16.2106 11.1217 17.05 9 17.05C6.87827 17.05 4.84344 16.2106 3.34315 14.7166C1.84285 13.2225 1 11.1961 1 9.0832C1 6.97027 1.84285 4.94388 3.34315 3.44982C4.84344 1.95575 6.87827 1.11639 9 1.11639C11.1217 1.11639 13.1566 1.95575 14.6569 3.44982C16.1571 4.94388 17 6.97027 17 9.0832Z" fill="black"/>
<path d="M19.0002 19.0417L14.6572 14.7167M14.6572 14.7167C15.4001 13.9769 15.9894 13.0986 16.3914 12.132C16.7935 11.1654 17.0004 10.1294 17.0004 9.08316C17.0004 8.03692 16.7935 7.00092 16.3914 6.03432C15.9894 5.06771 15.4001 4.18944 14.6572 3.44963C13.9143 2.70983 13.0324 2.12298 12.0618 1.7226C11.0911 1.32222 10.0508 1.11615 9.00021 1.11615C7.9496 1.11615 6.90929 1.32222 5.93866 1.7226C4.96803 2.12298 4.08609 2.70983 3.34321 3.44963C1.84288 4.94374 1 6.97018 1 9.08316C1 11.1961 1.84288 13.2226 3.34321 14.7167C4.84354 16.2108 6.87842 17.0502 9.00021 17.0502C11.122 17.0502 13.1569 16.2108 14.6572 14.7167Z" stroke="#0057FF" stroke-width="2" stroke-linecap="round" stroke-linejoin="round"/>
</svg>
