<svg width="13" height="14" viewBox="0 0 13 14" fill="none" xmlns="http://www.w3.org/2000/svg">
<path d="M10.7142 9.81674C9.82575 10.0292 8.89826 10.0189 8.01479 9.78678C7.13132 9.55467 6.31944 9.10798 5.65185 8.48672C4.98427 7.86546 4.48183 7.08902 4.18952 6.22693C3.8972 5.36484 3.82415 4.44401 3.97689 3.54691C3.95366 3.56925 3.92914 3.59021 3.90344 3.60969C3.72144 3.74757 3.49394 3.79871 3.03893 3.90098L2.62618 3.9942C1.02716 4.35475 0.227655 4.5347 0.0372031 5.14382C-0.152599 5.75229 0.392107 6.3873 1.48217 7.65667L1.76427 7.98486C2.07367 8.34541 2.22902 8.526 2.29857 8.74868C2.36812 8.972 2.34472 9.2128 2.29792 9.69375L2.25502 10.132C2.09057 11.826 2.00802 12.6727 2.50593 13.0488C3.00383 13.4255 3.75264 13.0824 5.24895 12.3956L5.637 12.2183C6.06211 12.0228 6.27466 11.9257 6.50021 11.9257C6.72577 11.9257 6.93832 12.0228 7.36407 12.2183L7.75082 12.3956C9.24779 13.0818 9.9966 13.4248 10.4938 13.0494C10.9924 12.6727 10.9099 11.826 10.7454 10.132L10.7142 9.81674Z" fill="#0057FF"/>
<path opacity="0.5" d="M4.64946 2.46329L4.43626 2.84391C4.20225 3.26207 4.08525 3.47115 3.90325 3.60903C3.92925 3.58961 3.9533 3.5689 3.9767 3.54624C3.82392 4.44341 3.89697 5.36432 4.18932 6.22648C4.48166 7.08863 4.98417 7.86512 5.65183 8.4864C6.3195 9.10768 7.13147 9.55435 8.01504 9.7864C8.8986 10.0185 9.82617 10.0287 10.7147 9.81607L10.7017 9.69308C10.6555 9.21213 10.6321 8.97134 10.7017 8.74801C10.7712 8.52534 10.9259 8.34474 11.236 7.98419L11.5181 7.656C12.6081 6.38728 13.1528 5.75227 12.9624 5.14315C12.7726 4.53403 11.9731 4.35343 10.3741 3.99353L9.96066 3.90032C9.5063 3.79804 9.2788 3.74691 9.09615 3.60903C8.91415 3.47115 8.79715 3.26207 8.56314 2.84391L8.35059 2.46329C7.52703 0.992606 7.11558 0.257263 6.50002 0.257263C5.88447 0.257263 5.47301 0.992606 4.64946 2.46329Z" fill="#0057FF"/>
</svg>
